<mxfile host="app.diagrams.net" modified="2023-08-01T09:42:16.981Z" agent="Mozilla/5.0 (Windows NT 10.0; Win64; x64) AppleWebKit/537.36 (KHTML, like Gecko) Chrome/114.0.0.0 Safari/537.36 Edg/114.0.1823.79" version="21.6.6" etag="giOeGksTQ1TzboMq9sGD" type="github">
  <diagram name="第 1 页" id="SKicSSFwOlTWrreZmX5g">
    <mxGraphModel>
      <root>
        <mxCell id="0" />
        <mxCell id="1" parent="0" />
      </root>
    </mxGraphModel>
  </diagram>
</mxfile>
